<?xml version="1.0" encoding="UTF-8"?>
<svg id="Layer_1" data-name="Layer 1" xmlns="http://www.w3.org/2000/svg" viewBox="0 0 128 116">
  <defs>
    <style>
      .cls-1 {
        fill: #fff;
        stroke-width: 0px;
      }
    </style>
  </defs>
  <path class="cls-1" d="M69.01,41.95c4.45,6.56,8.53,13.37,12.19,20.4.49.99,1.69,1.39,2.68.9.39-.19.71-.51.9-.9,3.67-7.03,7.74-13.84,12.19-20.4l.75-1.15c3.44-5.29,6.5-10.55,6.25-16.88-.09-2.38-.57-4.73-1.41-6.96-4.26-10.81-16.48-16.13-27.29-11.87-5.43,2.14-9.73,6.44-11.87,11.87-.84,2.23-1.32,4.58-1.41,6.96-.25,6.32,2.82,11.59,6.25,16.88l.75,1.15ZM66.01,24.07c.08-1.95.47-3.88,1.16-5.7,3.48-8.75,13.39-13.01,22.14-9.53,4.35,1.73,7.8,5.18,9.53,9.53.69,1.83,1.08,3.75,1.16,5.7h0c.2,5.15-2.54,9.82-5.61,14.54l-.75,1.15c-3.64,5.6-7.39,11.36-10.63,17.35-3.24-6-6.99-11.76-10.63-17.35l-.75-1.15c-3.07-4.72-5.81-9.39-5.61-14.54Z"/>
  <path class="cls-1" d="M83,38c7.18,0,13-5.82,13-13s-5.82-13-13-13-13,5.82-13,13c0,7.18,5.82,12.99,13,13ZM83,16c4.97,0,9,4.03,9,9s-4.03,9-9,9-9-4.03-9-9c0-4.97,4.03-8.99,9-9Z"/>
  <path class="cls-1" d="M58.46,29.07l-12.38-8.54c-.43,1.29-.96,2.55-1.6,3.76l16.06,11.08c-.94-2.01-1.64-4.13-2.09-6.3Z"/>
  <path class="cls-1" d="M123.41,73.1c-.49-.51-1.2-.72-1.89-.56l-10.4,2.37-7.66-10.85c-.15-.21-.34-.4-.56-.54l-5.97-3.78-2.97-5.59c-.82,1.34-1.61,2.68-2.39,4.04l2.07,3.9c.16.31.4.57.7.75l6.08,3.85,8.21,11.62c.47.66,1.29.97,2.08.8l10.61-2.42,2.39,2.49-4.53,12.73-32.49,9.12c-.49.14-.92.46-1.18.9l-3.83,6.45-7.56-5.04c-.47-.31-1.05-.41-1.6-.27l-12.34,3.16c-.47.12-.88.4-1.15.8l-3.43,4.98h-3.69l-18.7-26.99-.23-7.79c-.01-.36-.12-.71-.31-1.01l-16.62-26.17c-.3-.46-.77-.79-1.31-.89l-7.48-1.44-2.7-6.89,13.38-6.34c-.72-1.14-1.45-2.27-2.18-3.39l-14.6,6.91c-.95.45-1.39,1.56-1.01,2.54l3.78,9.66c.25.64.81,1.11,1.48,1.24l7.71,1.49,15.86,24.98.24,7.84c.01.39.14.76.36,1.08l19.64,28.34c.37.54.99.86,1.64.86h5.79c.66,0,1.27-.32,1.65-.87l3.6-5.23,10.75-2.75,8.58,5.71c.92.61,2.16.36,2.77-.56.02-.03.04-.06.05-.09l4.5-7.57,32.72-9.19c.63-.18,1.13-.64,1.34-1.26l5.29-14.87c.25-.71.08-1.51-.44-2.06l-4.03-4.19Z"/>
  <path class="cls-1" d="M28,0c-6.19-.08-11.77,3.7-13.98,9.48-.6,1.58-.94,3.25-1,4.94-.18,4.49,1.97,8.18,4.38,11.87l.52.8c3.03,4.44,5.8,9.05,8.3,13.81.49.99,1.69,1.39,2.68.9.39-.19.7-.51.9-.9,2.5-4.76,5.27-9.37,8.3-13.81l.52-.8c2.41-3.69,4.56-7.37,4.38-11.86-.07-1.69-.4-3.36-1-4.94C39.77,3.7,34.19-.08,28,0ZM38.99,14.58c.13,3.32-1.61,6.27-3.73,9.52l-.52.8c-2.29,3.5-4.65,7.1-6.74,10.84-2.09-3.74-4.45-7.33-6.74-10.84l-.52-.8c-2.12-3.24-3.86-6.2-3.73-9.52.05-1.26.3-2.5.75-3.68,1.61-4.24,5.71-7,10.24-6.9,4.53-.1,8.64,2.66,10.24,6.9.45,1.18.7,2.42.75,3.68h0Z"/>
  <path class="cls-1" d="M28,8c-3.87,0-7,3.13-7,7s3.13,7,7,7,7-3.13,7-7c0-3.86-3.14-7-7-7ZM28,18c-1.66,0-3-1.34-3-3s1.34-3,3-3,3,1.34,3,3c0,1.66-1.34,3-3,3Z"/>
  <path class="cls-1" d="M39.02,66.48c-.6,1.58-.94,3.25-1,4.94-.18,4.49,1.97,8.18,4.38,11.87l.52.79c3.03,4.44,5.8,9.05,8.3,13.81.49.99,1.69,1.39,2.68.9.39-.19.7-.51.9-.9,2.5-4.76,5.27-9.37,8.3-13.81l.52-.79c2.41-3.69,4.56-7.37,4.38-11.86-.07-1.69-.4-3.36-1-4.94-3.08-7.72-11.83-11.49-19.55-8.42-3.84,1.53-6.88,4.57-8.41,8.41h0ZM42.76,67.9c2.29-5.66,8.74-8.38,14.4-6.09,2.77,1.12,4.97,3.32,6.09,6.09.45,1.18.7,2.42.75,3.68h0c.13,3.32-1.61,6.28-3.73,9.52l-.52.79c-2.29,3.51-4.65,7.1-6.74,10.84-2.09-3.74-4.45-7.34-6.74-10.84l-.52-.79c-2.12-3.24-3.86-6.2-3.73-9.52.05-1.26.3-2.5.75-3.68h0Z"/>
  <path class="cls-1" d="M53,79c3.87,0,7-3.13,7-7s-3.13-7-7-7-7,3.13-7,7c0,3.86,3.14,7,7,7ZM53,69c1.66,0,3,1.34,3,3s-1.34,3-3,3-3-1.34-3-3c0-1.66,1.34-3,3-3Z"/>
</svg>