<?xml version="1.0" encoding="UTF-8"?>
<svg id="Layer_1" data-name="Layer 1" xmlns="http://www.w3.org/2000/svg" viewBox="0 0 400.83 512">
  <defs>
    <style>
      .cls-1 {
        fill: #fff;
        stroke-width: 0px;
      }
    </style>
  </defs>
  <path class="cls-1" d="M313.69,192.77c7.51-10.51,15.77-22.62,23.5-35.17,2.32-3.77,1.15-8.71-2.62-11.03-3.77-2.32-8.71-1.15-11.03,2.62-15.14,24.56-32.78,47.99-41.91,59.73-23.8-30.44-68.92-94.27-68.92-123.93,0-38.01,30.93-68.94,68.94-68.94s68.94,30.93,68.94,68.94c0,6.39-2.33,18.57-13.43,40.22-2.02,3.94-.46,8.77,3.48,10.79,3.94,2.02,8.77.46,10.79-3.48,10.22-19.95,15.19-35.5,15.19-47.53,0-46.86-38.12-84.98-84.98-84.98s-84.98,38.12-84.98,84.98c0,18.8,12.81,47.77,38.06,86.13-10.58-.26-21.22.45-31.6,2.11-7.01-49.5-49.65-87.7-101.06-87.7C45.79,85.51,0,131.3,0,187.59c0,32.96,34.1,89.24,61.63,129.31-1.17,8.11-1.77,16.37-1.77,24.61,0,18.73,3.02,37.14,8.97,54.72,1.46,4.31,6.37,6.55,10.59,4.86,3.9-1.56,5.94-6.04,4.6-10.01-5.39-15.92-8.13-32.6-8.13-49.58,0-1.43.04-2.86.08-4.3,10.83,14.94,18.73,24.99,19.81,26.37,3.16,4,9.42,4,12.58,0,1.21-1.53,10.86-13.81,23.61-31.64.85.3,1.75.48,2.7.48h8.85l16.81,5.61-5.6,16.81-24.87,33.16c-2.72,3.63-1.81,8.97,1.97,11.48l17.52,11.68-10.19,10.19c-.61.61-1.12,1.31-1.5,2.08l-7.19,14.38-15.62,6.25c-7.66-8.62-14.43-18.16-20.11-28.53-2.12-3.88-6.99-5.31-10.88-3.18-3.88,2.12-5.31,7-3.18,10.88,25.32,46.28,70.2,77.74,121.14,86.37.32.07.64.12.97.15,9.02,1.48,18.23,2.25,27.55,2.25,94.01,0,170.49-76.48,170.49-170.49,0-61.95-33.28-118.53-87.15-148.74ZM102.08,345.53c-28.84-37.83-86.05-120.59-86.05-157.94,0-47.45,38.6-86.05,86.05-86.05s86.05,38.6,86.05,86.05c0,37.35-57.21,120.11-86.05,157.94ZM189.47,456.78c-1.15,1.73-1.59,3.83-1.22,5.88l5.22,28.84c-24.72-6.08-47.5-18.16-66.35-35.08l12.13-4.85c1.82-.73,3.32-2.1,4.19-3.86l7.97-15.94,16.18-16.18c3.52-3.52,2.92-9.58-1.22-12.34l-18.6-12.4,20.57-27.42c.52-.69.92-1.46,1.19-2.27l8.55-25.65c1.4-4.2-.87-8.74-5.07-10.14l-25.65-8.55c-.82-.27-1.67-.41-2.54-.41h-1.96c8.42-12.28,17.44-26.04,25.9-40.18l2.66,7.98c.67,2.02,2.12,3.68,4.02,4.64l15.41,7.7,48.57,64.76v36.76l-31.86,31.86c-.37.37-.71.78-1,1.22l-17.1,25.65ZM230.35,495.97c-6.74,0-13.42-.45-20-1.31l-5.74-31.67,14.87-22.3,33.64-33.64c1.5-1.5,2.35-3.54,2.35-5.67v-42.76c0-1.73-.56-3.42-1.6-4.81l-51.31-68.41c-.75-1-1.71-1.8-2.83-2.36l-14.13-7.07-6.06-18.17c-.03-.08-.07-.16-.1-.24,13.7-25.21,24.06-50.03,24.67-68.26,13.77-2.35,28.1-2.85,42.04-1.43,15.46,22.01,28.63,38.19,29.29,39,3.16,3.87,9.27,3.87,12.42,0,.54-.66,7.13-8.76,16.29-21.04,7.17,3.91,13.96,8.32,20.32,13.19-22.79,8.64-61.8,20.63-62.27,20.77-4.17,1.28-6.56,5.67-5.36,9.87l15.81,55.32-22.32,22.32c-2.7,2.7-3.12,6.94-1,10.11l15.75,23.63v65.98c0,.86.14,1.72.41,2.54l8.55,25.65c.61,1.82,1.84,3.36,3.48,4.34l28.04,16.82c-22.27,12.47-47.93,19.59-75.22,19.59ZM320.66,466.73l-32.34-19.4-7.2-21.61v-67.11c0-1.58-.47-3.13-1.35-4.45l-13.46-20.18,21.01-21.01c2.06-2.06,2.84-5.07,2.04-7.87l-14.95-52.33c14.72-4.62,47.13-15,63.71-21.94,10.31,10.03,19.12,21.4,26.22,33.76l-28.49,28.49c-3.13,3.13-3.13,8.21,0,11.34l12.18,12.18-21.48,28.64c-2.39,3.19-2.08,7.66.74,10.48l14.75,14.75v13.78c0,2.13.84,4.17,2.35,5.67l22.91,22.91c-11.18,21.38-27.22,39.83-46.65,53.88ZM358.08,380.95v-13.78c0-2.13-.84-4.17-2.35-5.67l-12.18-12.18,21.48-28.64c2.39-3.19,2.08-7.66-.74-10.48l-11.43-11.43,19.08-19.08c8.35,19.15,12.87,40.13,12.87,61.84,0,19.65-3.69,38.44-10.41,55.74l-16.31-16.31Z"/>
  <path class="cls-1" d="M281.65,42.76c-23.28,0-42.22,18.94-42.22,42.22s18.94,42.22,42.22,42.22,42.22-18.94,42.22-42.22-18.94-42.22-42.22-42.22ZM281.65,111.17c-14.44,0-26.19-11.75-26.19-26.19s11.75-26.19,26.19-26.19,26.19,11.75,26.19,26.19-11.75,26.19-26.19,26.19Z"/>
  <path class="cls-1" d="M102.08,128.27c-32.71,0-59.32,26.61-59.32,59.32s26.61,59.32,59.32,59.32,59.32-26.61,59.32-59.32-26.61-59.32-59.32-59.32ZM102.08,230.88c-23.87,0-43.29-19.42-43.29-43.29s19.42-43.29,43.29-43.29,43.29,19.42,43.29,43.29-19.42,43.29-43.29,43.29Z"/>
</svg>