<?xml version="1.0" encoding="UTF-8"?>
<svg id="svg93" xmlns="http://www.w3.org/2000/svg" xmlns:xlink="http://www.w3.org/1999/xlink" viewBox="0 0 682.67 682.67">
  <defs>
    <style>
      .cls-1 {
        clip-path: url(#clippath);
      }

      .cls-2 {
        stroke-width: 0px;
      }

      .cls-2, .cls-3 {
        fill: none;
      }

      .cls-3 {
        stroke: #fff;
        stroke-linecap: round;
        stroke-linejoin: round;
        stroke-width: 20px;
      }
    </style>
    <clipPath id="clippath">
      <rect class="cls-2" y="0" width="682.67" height="682.67"/>
    </clipPath>
  </defs>
  <g id="g99">
    <g id="g101">
      <g class="cls-1">
        <g id="g103">
          <g id="g109">
            <path id="path111" class="cls-3" d="M638.5,469.02v163.64c0,22.09-17.91,40-40,40H84.17c-22.09,0-40-17.91-40-40v-55.64"/>
          </g>
          <g id="g113">
            <path id="path115" class="cls-3" d="M489.68,632.67H84.24c-22.13,0-40.07-17.94-40.07-40.07V95.77c0-22.13,17.94-40.07,40.07-40.07h514.2c22.13,0,40.07,17.94,40.07,40.07v388.08c0,10.63-4.22,20.82-11.74,28.33l-108.75,108.75c-7.51,7.51-17.71,11.74-28.33,11.74Z"/>
          </g>
          <g id="g117">
            <path id="path119" class="cls-3" d="M473.26,632.67c18.13,0,32.83-14.7,32.83-32.83v-66.75c0-18.13,14.7-32.83,32.83-32.83h66.75c18.13,0,32.83-14.7,32.83-32.83"/>
          </g>
          <g id="g121">
            <path id="path123" class="cls-3" d="M162.4,198.61H44.17"/>
          </g>
          <g id="g125">
            <path id="path127" class="cls-3" d="M638.5,198.61H202.4"/>
          </g>
          <g id="g129">
            <path id="path131" class="cls-3" d="M157.4,115.51c-11.27,0-20.41-9.14-20.41-20.41V30.41c0-11.27,9.14-20.41,20.41-20.41h4.59c11.27,0,20.41,9.14,20.41,20.41v25.29"/>
          </g>
          <g id="g133">
            <path id="path135" class="cls-3" d="M520.68,115.51c-11.27,0-20.41-9.14-20.41-20.41V30.41c0-11.27,9.14-20.41,20.41-20.41h4.59c11.27,0,20.41,9.14,20.41,20.41v25.29"/>
          </g>
          <g id="g137">
            <path id="path139" class="cls-3" d="M161.31,325.27h-47.62c-5.26,0-9.52-4.26-9.52-9.52v-47.62c0-5.26,4.26-9.52,9.52-9.52h47.62c5.26,0,9.52,4.26,9.52,9.52v47.62c0,5.26-4.26,9.52-9.52,9.52Z"/>
          </g>
          <g id="g141">
            <path id="path143" class="cls-3" d="M297.2,325.27h-47.62c-5.26,0-9.52-4.26-9.52-9.52v-47.62c0-5.26,4.26-9.52,9.52-9.52h47.62c5.26,0,9.52,4.26,9.52,9.52v47.62c0,5.26-4.26,9.52-9.52,9.52Z"/>
          </g>
          <g id="g145">
            <path id="path147" class="cls-3" d="M433.09,325.27h-47.62c-5.26,0-9.52-4.26-9.52-9.52v-47.62c0-5.26,4.26-9.52,9.52-9.52h47.62c5.26,0,9.52,4.26,9.52,9.52v47.62c0,5.26-4.26,9.52-9.52,9.52Z"/>
          </g>
          <g id="g149">
            <path id="path151" class="cls-3" d="M568.97,325.27h-47.62c-5.26,0-9.52-4.26-9.52-9.52v-47.62c0-5.26,4.26-9.52,9.52-9.52h47.62c5.26,0,9.52,4.26,9.52,9.52v47.62c0,5.26-4.26,9.52-9.52,9.52Z"/>
          </g>
          <g id="g153">
            <path id="path155" class="cls-3" d="M161.31,448.97h-47.62c-5.26,0-9.52-4.26-9.52-9.52v-47.62c0-5.26,4.26-9.52,9.52-9.52h47.62c5.26,0,9.52,4.26,9.52,9.52v47.62c0,5.26-4.26,9.52-9.52,9.52Z"/>
          </g>
          <g id="g157">
            <path id="path159" class="cls-3" d="M297.2,448.97h-47.62c-5.26,0-9.52-4.26-9.52-9.52v-47.62c0-5.26,4.26-9.52,9.52-9.52h47.62c5.26,0,9.52,4.26,9.52,9.52v47.62c0,5.26-4.26,9.52-9.52,9.52Z"/>
          </g>
          <g id="g161">
            <path id="path163" class="cls-3" d="M433.09,448.97h-47.62c-5.26,0-9.52-4.26-9.52-9.52v-47.62c0-5.26,4.26-9.52,9.52-9.52h47.62c5.26,0,9.52,4.26,9.52,9.52v47.62c0,5.26-4.26,9.52-9.52,9.52Z"/>
          </g>
          <g id="g165">
            <path id="path167" class="cls-3" d="M568.97,451.94h-47.62c-5.26,0-9.52-4.26-9.52-9.52v-47.62c0-5.26,4.26-9.52,9.52-9.52h47.62c5.26,0,9.52,4.26,9.52,9.52v47.62c0,5.26-4.26,9.52-9.52,9.52Z"/>
          </g>
          <g id="g169">
            <path id="path171" class="cls-3" d="M161.31,572.67h-47.62c-5.26,0-9.52-4.26-9.52-9.52v-47.62c0-5.26,4.26-9.52,9.52-9.52h47.62c5.26,0,9.52,4.26,9.52,9.52v47.62c0,5.26-4.26,9.52-9.52,9.52Z"/>
          </g>
          <g id="g173">
            <path id="path175" class="cls-3" d="M297.2,572.67h-47.62c-5.26,0-9.52-4.26-9.52-9.52v-47.62c0-5.26,4.26-9.52,9.52-9.52h47.62c5.26,0,9.52,4.26,9.52,9.52v47.62c0,5.26-4.26,9.52-9.52,9.52Z"/>
          </g>
          <g id="g177">
            <path id="path179" class="cls-3" d="M375.94,529.26v-13.73c0-5.26,4.26-9.52,9.52-9.52h47.62c5.26,0,9.52,4.26,9.52,9.52v47.62c0,5.26-4.26,9.52-9.52,9.52h-47.62c-5.26,0-9.52-4.26-9.52-9.52"/>
          </g>
        </g>
      </g>
    </g>
  </g>
</svg>